<svg viewBox="0 0 100 120" fill="none" xmlns="http://www.w3.org/2000/svg">
  <defs>
    <linearGradient id="blG" x1="0%" y1="0%" x2="100%" y2="100%"><stop offset="0%" stop-color="#863bff"/><stop offset="100%" stop-color="#47bfff"/></linearGradient>
  </defs>
  <path d="M14 114 L14 20 C14 16,16 14,20 14 L80 14 C84 14,86 16,86 20 L86 114" stroke="url(#blG)" stroke-width="4.5" fill="none" stroke-linecap="round"/>
  <line x1="10" y1="114" x2="90" y2="114" stroke="url(#blG)" stroke-width="4.5" stroke-linecap="round"/>
  <circle cx="50" cy="24" r="4" fill="#16a34a"/>
  <rect x="26" y="34" width="13" height="10" rx="2.5" fill="#863bff"/>
  <rect x="62" y="34" width="13" height="10" rx="2.5" fill="#a78bfa"/>
  <rect x="26" y="50" width="13" height="10" rx="2.5" fill="#6e7bff"/>
  <rect x="44" y="50" width="13" height="10" rx="2.5" fill="#6e7bff"/>
  <rect x="44" y="66" width="13" height="10" rx="2.5" fill="#4e9bff"/>
  <rect x="62" y="66" width="13" height="10" rx="2.5" fill="#47bfff"/>
  <rect x="44" y="34" width="13" height="10" rx="2.5" stroke="url(#blG)" stroke-width="1.8" fill="none" opacity="0.25"/>
  <rect x="62" y="50" width="13" height="10" rx="2.5" stroke="url(#blG)" stroke-width="1.8" fill="none" opacity="0.25"/>
  <rect x="26" y="66" width="13" height="10" rx="2.5" stroke="url(#blG)" stroke-width="1.8" fill="none" opacity="0.25"/>
  <rect x="23" y="88" width="17" height="5" rx="2.5" fill="#863bff" opacity="0.1" stroke="url(#blG)" stroke-width="2.5" stroke-opacity="0.5"/>
  <rect x="60" y="88" width="17" height="5" rx="2.5" fill="#863bff" opacity="0.1" stroke="url(#blG)" stroke-width="2.5" stroke-opacity="0.5"/>
  <rect x="42" y="85" width="16" height="14" rx="8" stroke="url(#blG)" stroke-width="2.5" fill="none" opacity="0.35"/>
</svg>
